
        <svg xmlns="http://www.w3.org/2000/svg" xmlns:xlink="http://www.w3.org/1999/xlink" version="1.1" width="3194.805194805195" height="896.1038961038961" viewBox="0 0 3194.805194805195 896.1038961038961">
			
			<g transform="scale(9.74025974025974) translate(10, 10)">
				<defs id="SvgjsDefs3552"/><g id="SvgjsG3553" featureKey="symbolFeature-0" transform="matrix(0.8345043165766625,0,0,0.8345043165766625,-17.03751738700986,-7.277908483092266)" fill="#000"><path xmlns="http://www.w3.org/2000/svg" d="M66.1955261,33.8072357C47.0261955,21.0886726,55.6949348,8.7212353,55.6949348,8.7212353  c-18.6227531,10.7252636-22.744072,27.0900593-18.18256,47.7793198c-6.7203636-5.4408073-7.6854-11.8849182-7.4740906-20.3190536  c-8.5488892,9.1412735-10.0796356,18.8830948-9.5189171,29.2979965  C21.4095306,81.9958115,35.4491425,95.141983,52.077713,94.9988403  c16.1526566-0.1389313,29.8162842-13.5637512,30.5965805-29.8703613  C83.3332367,51.3958473,77.5346451,41.329525,66.1955261,33.8072357z M52.2815323,85.3143158  c-2.9126282,0-5.6862221-0.5698166-8.2427368-1.5714569c-3.350174-1.3127823-6.3019066-3.3975906-8.6528816-6.0406265  c0.1081505-0.0116425,0.2137566-0.0357742,0.3227882-0.0490799c9.7110939-1.1988602,17.5170708-8.5356293,19.3947296-18.0204391  c0.2836876,1.4293022,0.438427,2.9059753,0.438427,4.4184189c0,4.1113358-1.113121,7.9556732-3.0298805,11.278389  c6.7760506-3.9091187,11.3491058-11.2135468,11.3491058-19.5984955c0-5.6878929-2.1129913-10.8691368-5.5771904-14.8440361  c9.5796471,2.6321678,16.6268501,11.3815498,16.6268501,21.7980652  C74.9107437,75.1823273,64.7787552,85.3143158,52.2815323,85.3143158z"/></g><g id="SvgjsG3554" featureKey="textGroupContainer" transform="matrix(1,0,0,1,307,13)" fill="#000"><rect xmlns="http://www.w3.org/2000/svg" y="0" height="1" width="1" opacity="0"/><rect xmlns="http://www.w3.org/2000/svg" y="0" x="-235" width="3" height="46"/></g><g id="SvgjsG3555" featureKey="nameFeature-0" transform="matrix(0.7750435412072424,0,0,0.7750435412072424,88.13989524240392,16.139376891530922)" fill="#000"><path d="M4.76 40 c-0.4 0 -0.76 -0.08 -1.16 -0.16 c-0.52 -0.16 -0.92 -0.48 -1 -1.04 c-0.12 -0.44 -0.16 -0.84 -0.2 -1.24 l0 -0.88 l0 -21.36 c0 -0.72 0.04 -1.44 0.16 -2.12 c0.08 -0.36 0.28 -0.64 0.6 -0.84 c0.12 -0.12 0.28 -0.2 0.44 -0.2 c0.28 -0.08 0.56 -0.16 0.84 -0.16 l3.76 0 c0.28 0 0.6 0.08 0.88 0.16 c0.52 0.12 0.88 0.48 1.04 1.04 c0.08 0.28 0.12 0.6 0.12 0.92 c0.04 0.32 0.04 0.64 0.04 0.96 l0 5.32 c0 0.44 0 0.84 0.04 1.28 c0.04 0.36 0.2 0.68 0.44 0.96 c0.28 0.32 0.6 0.52 1.08 0.56 c0.24 0.04 0.48 0.04 0.76 0.04 l3.96 0 c0.28 0 0.56 0 0.88 -0.04 c0.76 -0.12 1.28 -0.6 1.44 -1.36 c0.04 -0.24 0.08 -0.44 0.08 -0.68 l0 -1.16 l0 -5.2 c0 -0.36 0.04 -0.72 0.04 -1.08 c0.04 -1 0.72 -1.64 1.64 -1.68 c0.2 0 0.4 -0.04 0.6 -0.04 l3.16 0 c0.32 0 0.64 0.04 0.96 0.08 c0.8 0.16 1.24 0.68 1.36 1.48 c0.04 0.32 0.04 0.68 0.04 1.04 l0 4.56 l0 6.76 l0 10.84 c0 0.44 0 0.88 -0.04 1.32 c0 0.28 -0.04 0.52 -0.12 0.76 c-0.16 0.52 -0.48 0.84 -1 1 c-0.4 0.08 -0.8 0.16 -1.24 0.16 l-3 0 c-0.32 0 -0.68 -0.08 -1.04 -0.12 c-0.76 -0.16 -1.2 -0.6 -1.28 -1.36 c-0.04 -0.28 -0.04 -0.52 -0.04 -0.8 c-0.04 -0.48 -0.04 -1 -0.04 -1.52 l0 -3.96 c0 -0.48 0 -0.96 -0.16 -1.44 c-0.12 -0.48 -0.4 -0.8 -0.8 -1.04 c-0.2 -0.08 -0.44 -0.12 -0.64 -0.16 c-0.24 -0.04 -0.48 -0.04 -0.68 -0.04 l-4.16 0 c-0.28 0 -0.6 0 -0.88 0.04 c-0.68 0.12 -1.08 0.52 -1.24 1.2 c-0.08 0.2 -0.08 0.44 -0.12 0.64 l0 1.08 l0 4.56 c0 0.32 -0.04 0.64 -0.04 0.96 s-0.08 0.64 -0.2 0.92 c-0.12 0.44 -0.44 0.72 -0.84 0.84 c-0.44 0.12 -0.84 0.2 -1.24 0.2 l-3.2 0 z M43.389 40.52 c-0.92 -0.08 -1.8 -0.2 -2.68 -0.36 c-1.64 -0.28 -3.12 -0.88 -4.48 -1.76 c-1.6 -1 -2.8 -2.36 -3.68 -4.04 c-0.8 -1.48 -1.24 -3.04 -1.52 -4.68 c-0.2 -1.2 -0.24 -2.44 -0.24 -3.68 l0 -1.24 c0.04 -1.6 0.36 -3.16 0.8 -4.68 c0.44 -1.44 1.12 -2.76 2.04 -3.96 c0.8 -1.08 1.76 -1.96 2.88 -2.72 c1.92 -1.2 4 -1.88 6.28 -1.96 l1.84 0 c1.92 0.08 3.8 0.48 5.56 1.24 c1.88 0.8 3.44 2.08 4.6 3.76 c1 1.48 1.64 3.16 2 4.92 c0.44 2.04 0.56 4.16 0.4 6.24 c-0.2 2.36 -0.72 4.6 -1.88 6.68 c-1.6 2.96 -4.04 4.92 -7.32 5.76 c-1 0.28 -2.04 0.44 -3.04 0.48 c-0.52 0.04 -1.04 0.04 -1.56 0 z M42.829 34.64 c1.2 0.32 2.32 0.2 3.36 -0.52 c0.36 -0.24 0.68 -0.56 0.96 -0.92 c0.32 -0.44 0.6 -0.92 0.84 -1.44 c0.48 -1.12 0.76 -2.32 0.88 -3.56 l0.12 -1.44 c0.04 -0.4 0.04 -0.84 0.04 -1.24 c-0.08 -1.16 -0.16 -2.32 -0.4 -3.48 c-0.16 -0.84 -0.44 -1.68 -0.88 -2.44 c-0.24 -0.52 -0.56 -0.96 -0.96 -1.32 c-0.68 -0.6 -1.44 -1 -2.32 -1.12 c-1.24 -0.16 -2.32 0.2 -3.2 1.08 c-0.68 0.64 -1.12 1.4 -1.44 2.28 c-0.28 0.76 -0.52 1.6 -0.64 2.4 c-0.12 1 -0.24 2 -0.2 2.96 c-0.04 0.96 0.04 1.84 0.16 2.76 c0.08 0.84 0.28 1.64 0.52 2.44 c0.2 0.64 0.48 1.2 0.84 1.76 c0.6 0.84 1.32 1.48 2.32 1.8 z M69.22200000000001 39.995586 c-0.4196 -0.0032031 -0.8366 -0.056796 -1.2422 -0.1684 c-0.506 -0.13879 -0.83884 -0.47596 -0.9944 -0.96676 c-0.076796 -0.24199 -0.10719 -0.50436 -0.12117 -0.75956 c-0.022812 -0.418 -0.02 -0.8376 -0.02 -1.2564 c-0.0012109 -5.0272 -0.00042968 -10.054 -0.0016406 -15.082 c0 -0.4836 0 -0.9672 -0.019609 -1.45 c-0.010781 -0.25602 -0.037188 -0.51724 -0.1032 -0.76364 c-0.16238 -0.6036 -0.5436 -1.0108 -1.1556 -1.188 c-0.3752 -0.1084 -0.7588 -0.14559 -1.1468 -0.14879 c-0.612 -0.0051952 -1.2244 -0.0035938 -1.8368 -0.0071876 c-0.35442 -0.0023828 -0.7092 -0.0023828 -1.0632 -0.018789 c-0.22442 -0.010391 -0.4528 -0.028008 -0.67 -0.080392 c-0.6188 -0.14922 -1.0316 -0.52564 -1.146 -1.1664 c-0.21641 -1.2168 -0.21719 -2.4372 -0.0059764 -3.6552 c0.10441 -0.6004 0.4716 -0.98116 1.0496 -1.1392 c0.2768 -0.075588 0.5696 -0.10797 0.85724 -0.12598 c0.38558 -0.023594 0.7732 -0.018008 1.16 -0.018008 c2.6748 -0.0012109 5.3492 -0.00042968 8.024 -0.00042968 s5.3496 -0.00078124 8.0244 0.00082032 c0.3868 0 0.7748 -0.0060156 1.1596 0.023203 c0.2868 0.021992 0.5788 0.066796 0.8524 0.15238 c0.458 0.1432 0.7644 0.4664 0.9152 0.9248 c0.11199 0.33879 0.1616 0.69116 0.1652 1.0468 c0.0067968 0.6764 0.014414 1.3536 -0.0051952 2.0296 c-0.008008 0.2868 -0.053592 0.58 -0.13359 0.8556 c-0.16558 0.5712 -0.5556 0.94244 -1.138 1.0676 c-0.31238 0.067188 -0.6384 0.086408 -0.9592 0.093592 c-0.6764 0.015195 -1.3532 0.0071876 -2.03 0.011172 c-0.29 0.0016016 -0.5808 -0.004414 -0.86956 0.017578 c-0.25558 0.019609 -0.5156 0.0484 -0.762 0.11602 c-0.6812 0.18719 -1.1192 0.62916 -1.244 1.3316 c-0.072812 0.4112 -0.10402 0.8308 -0.12961 1.2484 c-0.021602 0.3532 -0.0087892 0.7084 -0.0087892 1.0628 c0 4.9308 0 9.8616 -0.0012109 14.792 c0 0.4512 -0.00078124 0.90244 -0.02 1.3532 c-0.0096092 0.22359 -0.034805 0.4532 -0.098788 0.6668 c-0.15801 0.5284 -0.5004 0.8924 -1.0412 1.048 c-0.34281 0.098788 -0.6944 0.15 -1.05 0.15199 c-1.0632 0.005586 -2.1268 0.0079688 -3.19 0.00078124 z M104.48 39.995586 c-0.4196 -0.0032031 -0.8366 -0.056796 -1.2422 -0.1684 c-0.506 -0.13879 -0.83884 -0.47596 -0.9944 -0.96676 c-0.076796 -0.24199 -0.10719 -0.50436 -0.12117 -0.75956 c-0.022812 -0.418 -0.02 -0.8376 -0.02 -1.2564 c-0.0012109 -5.0272 -0.00042968 -10.054 -0.0016406 -15.082 c0 -0.4836 0 -0.9672 -0.019609 -1.45 c-0.010781 -0.25602 -0.037188 -0.51724 -0.1032 -0.76364 c-0.16238 -0.6036 -0.5436 -1.0108 -1.1556 -1.188 c-0.3752 -0.1084 -0.7588 -0.14559 -1.1468 -0.14879 c-0.612 -0.0051952 -1.2244 -0.0035938 -1.8368 -0.0071876 c-0.35442 -0.0023828 -0.7092 -0.0023828 -1.0632 -0.018789 c-0.22442 -0.010391 -0.4528 -0.028008 -0.67 -0.080392 c-0.6188 -0.14922 -1.0316 -0.52564 -1.146 -1.1664 c-0.21641 -1.2168 -0.21719 -2.4372 -0.0059764 -3.6552 c0.10441 -0.6004 0.4716 -0.98116 1.0496 -1.1392 c0.2768 -0.075588 0.5696 -0.10797 0.85724 -0.12598 c0.38558 -0.023594 0.7732 -0.018008 1.16 -0.018008 c2.6748 -0.0012109 5.3492 -0.00042968 8.024 -0.00042968 s5.3496 -0.00078124 8.0244 0.00082032 c0.3868 0 0.7748 -0.0060156 1.1596 0.023203 c0.2868 0.021992 0.5788 0.066796 0.8524 0.15238 c0.458 0.1432 0.7644 0.4664 0.9152 0.9248 c0.11199 0.33879 0.1616 0.69116 0.1652 1.0468 c0.0067968 0.6764 0.014414 1.3536 -0.0051952 2.0296 c-0.008008 0.2868 -0.053592 0.58 -0.13359 0.8556 c-0.16558 0.5712 -0.5556 0.94244 -1.138 1.0676 c-0.31238 0.067188 -0.6384 0.086408 -0.9592 0.093592 c-0.6764 0.015195 -1.3532 0.0071876 -2.03 0.011172 c-0.29 0.0016016 -0.5808 -0.004414 -0.86956 0.017578 c-0.25558 0.019609 -0.5156 0.0484 -0.762 0.11602 c-0.6812 0.18719 -1.1192 0.62916 -1.244 1.3316 c-0.072812 0.4112 -0.10402 0.8308 -0.12961 1.2484 c-0.021602 0.3532 -0.0087892 0.7084 -0.0087892 1.0628 c0 4.9308 0 9.8616 -0.0012109 14.792 c0 0.4512 -0.00078124 0.90244 -0.02 1.3532 c-0.0096092 0.22359 -0.034805 0.4532 -0.098788 0.6668 c-0.15801 0.5284 -0.5004 0.8924 -1.0412 1.048 c-0.34281 0.098788 -0.6944 0.15 -1.05 0.15199 c-1.0632 0.005586 -2.1268 0.0079688 -3.19 0.00078124 z M131.985 40.52 c-0.92 -0.08 -1.8 -0.2 -2.68 -0.36 c-1.64 -0.28 -3.12 -0.88 -4.48 -1.76 c-1.6 -1 -2.8 -2.36 -3.68 -4.04 c-0.8 -1.48 -1.24 -3.04 -1.52 -4.68 c-0.2 -1.2 -0.24 -2.44 -0.24 -3.68 l0 -1.24 c0.04 -1.6 0.36 -3.16 0.8 -4.68 c0.44 -1.44 1.12 -2.76 2.04 -3.96 c0.8 -1.08 1.76 -1.96 2.88 -2.72 c1.92 -1.2 4 -1.88 6.28 -1.96 l1.84 0 c1.92 0.08 3.8 0.48 5.56 1.24 c1.88 0.8 3.44 2.08 4.6 3.76 c1 1.48 1.64 3.16 2 4.92 c0.44 2.04 0.56 4.16 0.4 6.24 c-0.2 2.36 -0.72 4.6 -1.88 6.68 c-1.6 2.96 -4.04 4.92 -7.32 5.76 c-1 0.28 -2.04 0.44 -3.04 0.48 c-0.52 0.04 -1.04 0.04 -1.56 0 z M131.425 34.64 c1.2 0.32 2.32 0.2 3.36 -0.52 c0.36 -0.24 0.68 -0.56 0.96 -0.92 c0.32 -0.44 0.6 -0.92 0.84 -1.44 c0.48 -1.12 0.76 -2.32 0.88 -3.56 l0.12 -1.44 c0.04 -0.4 0.04 -0.84 0.04 -1.24 c-0.08 -1.16 -0.16 -2.32 -0.4 -3.48 c-0.16 -0.84 -0.44 -1.68 -0.88 -2.44 c-0.24 -0.52 -0.56 -0.96 -0.96 -1.32 c-0.68 -0.6 -1.44 -1 -2.32 -1.12 c-1.24 -0.16 -2.32 0.2 -3.2 1.08 c-0.68 0.64 -1.12 1.4 -1.44 2.28 c-0.28 0.76 -0.52 1.6 -0.64 2.4 c-0.12 1 -0.24 2 -0.2 2.96 c-0.04 0.96 0.04 1.84 0.16 2.76 c0.08 0.84 0.28 1.64 0.52 2.44 c0.2 0.64 0.48 1.2 0.84 1.76 c0.6 0.84 1.32 1.48 2.32 1.8 z M172.209 40.56 c-1.12 -0.12 -2.24 -0.16 -3.36 -0.4 c-1.4 -0.28 -2.72 -0.76 -3.96 -1.52 c-1.76 -1.04 -3.08 -2.48 -4.04 -4.32 c-0.64 -1.16 -1.04 -2.4 -1.28 -3.72 c-0.32 -1.48 -0.48 -3 -0.44 -4.44 c-0.04 -1.48 0.12 -2.88 0.4 -4.28 c0.4 -1.96 1.12 -3.76 2.24 -5.4 c0.88 -1.28 1.96 -2.32 3.24 -3.12 c1.24 -0.8 2.6 -1.32 4.04 -1.6 c1.08 -0.24 2.16 -0.36 3.24 -0.32 c0.24 0.04 0.48 0.04 0.68 0.04 c1.52 0.2 3 0.48 4.44 0.96 c0.24 0.08 0.48 0.2 0.72 0.28 s0.44 0.24 0.64 0.44 c0.32 0.32 0.48 0.68 0.4 1.12 c-0.04 0.28 -0.08 0.6 -0.2 0.84 c-0.24 0.68 -0.52 1.32 -0.76 2 c-0.04 0.04 -0.04 0.12 -0.08 0.16 c-0.44 0.8 -0.96 1 -1.76 0.84 c-0.44 -0.08 -0.88 -0.24 -1.28 -0.4 c-0.76 -0.28 -1.56 -0.48 -2.36 -0.6 c-0.52 -0.08 -1.08 -0.04 -1.6 0.08 c-1.12 0.28 -1.96 0.96 -2.6 1.92 c-0.52 0.8 -0.84 1.72 -1.04 2.68 c-0.12 0.48 -0.16 1 -0.24 1.52 c-0.08 0.88 -0.2 1.72 -0.16 2.6 c0.08 1.52 0.2 3.04 0.64 4.48 c0.2 0.72 0.44 1.4 0.8 2.08 c0.36 0.56 0.8 1.08 1.32 1.52 c0.64 0.48 1.36 0.76 2.16 0.84 c0.8 0.04 1.6 0.04 2.4 -0.16 c0.48 -0.16 0.96 -0.28 1.48 -0.44 c0.28 -0.08 0.52 -0.2 0.8 -0.24 c0.2 -0.08 0.4 -0.08 0.6 -0.08 c0.32 0 0.6 0.12 0.88 0.36 c0.16 0.16 0.32 0.36 0.44 0.6 c0.36 0.76 0.64 1.56 0.88 2.36 c0.12 0.28 0.16 0.6 0.12 0.92 c0 0.32 -0.12 0.56 -0.36 0.8 c-0.16 0.16 -0.32 0.28 -0.52 0.36 c-0.32 0.12 -0.6 0.28 -0.92 0.36 c-1.64 0.44 -3.32 0.76 -5.04 0.88 l-0.56 0 z M194.912 40.52 c-0.92 -0.08 -1.8 -0.2 -2.68 -0.36 c-1.64 -0.28 -3.12 -0.88 -4.48 -1.76 c-1.6 -1 -2.8 -2.36 -3.68 -4.04 c-0.8 -1.48 -1.24 -3.04 -1.52 -4.68 c-0.2 -1.2 -0.24 -2.44 -0.24 -3.68 l0 -1.24 c0.04 -1.6 0.36 -3.16 0.8 -4.68 c0.44 -1.44 1.12 -2.76 2.04 -3.96 c0.8 -1.08 1.76 -1.96 2.88 -2.72 c1.92 -1.2 4 -1.88 6.28 -1.96 l1.84 0 c1.92 0.08 3.8 0.48 5.56 1.24 c1.88 0.8 3.44 2.08 4.6 3.76 c1 1.48 1.64 3.16 2 4.92 c0.44 2.04 0.56 4.16 0.4 6.24 c-0.2 2.36 -0.72 4.6 -1.88 6.68 c-1.6 2.96 -4.04 4.92 -7.32 5.76 c-1 0.28 -2.04 0.44 -3.04 0.48 c-0.52 0.04 -1.04 0.04 -1.56 0 z M194.352 34.64 c1.2 0.32 2.32 0.2 3.36 -0.52 c0.36 -0.24 0.68 -0.56 0.96 -0.92 c0.32 -0.44 0.6 -0.92 0.84 -1.44 c0.48 -1.12 0.76 -2.32 0.88 -3.56 l0.12 -1.44 c0.04 -0.4 0.04 -0.84 0.04 -1.24 c-0.08 -1.16 -0.16 -2.32 -0.4 -3.48 c-0.16 -0.84 -0.44 -1.68 -0.88 -2.44 c-0.24 -0.52 -0.56 -0.96 -0.96 -1.32 c-0.68 -0.6 -1.44 -1 -2.32 -1.12 c-1.24 -0.16 -2.32 0.2 -3.2 1.08 c-0.68 0.64 -1.12 1.4 -1.44 2.28 c-0.28 0.76 -0.52 1.6 -0.64 2.4 c-0.12 1 -0.24 2 -0.2 2.96 c-0.04 0.96 0.04 1.84 0.16 2.76 c0.08 0.84 0.28 1.64 0.52 2.44 c0.2 0.64 0.48 1.2 0.84 1.76 c0.6 0.84 1.32 1.48 2.32 1.8 z M215.62099999999998 40 c-0.52 0 -1 0 -1.52 -0.12 c-0.28 -0.08 -0.56 -0.2 -0.76 -0.4 c-0.24 -0.24 -0.4 -0.52 -0.44 -0.84 c-0.04 -0.24 -0.08 -0.44 -0.08 -0.68 l0 -1.16 l0 -10.84 l0 -10.8 l0 -1.28 c0.04 -0.24 0.04 -0.52 0.12 -0.76 c0.12 -0.44 0.44 -0.8 0.88 -0.96 c0.2 -0.04 0.44 -0.08 0.64 -0.12 c0.32 -0.04 0.6 -0.04 0.88 -0.04 l7.64 0 c1.8 0 3.52 0.28 5.24 0.76 c1.92 0.52 3.6 1.4 5.04 2.76 c1.04 1 1.84 2.16 2.4 3.48 c0.6 1.32 0.96 2.76 1.12 4.2 c0.16 0.96 0.28 1.92 0.24 2.88 c-0.04 1.4 -0.2 2.76 -0.52 4.12 c-0.44 1.8 -1.2 3.48 -2.32 4.92 c-1 1.32 -2.2 2.36 -3.64 3.16 c-1.76 0.96 -3.64 1.44 -5.64 1.6 c-1.32 0.12 -2.64 0.12 -3.96 0.12 l-5.32 0 z M222.261 34.36 c0.32 0.04 0.64 0 0.96 -0.08 c2.28 -0.44 3.88 -1.76 4.84 -3.88 c0.56 -1.12 0.8 -2.36 0.88 -3.64 l0 -1.92 c-0.04 -0.96 -0.2 -1.92 -0.48 -2.84 c-0.2 -0.76 -0.52 -1.44 -0.96 -2.08 c-0.4 -0.56 -0.84 -1 -1.4 -1.36 c-0.88 -0.6 -1.92 -0.92 -3 -0.96 c-0.32 -0.04 -0.68 0 -1.04 0.04 c-0.32 0 -0.6 0.16 -0.84 0.4 c-0.32 0.28 -0.52 0.68 -0.56 1.08 c-0.04 0.44 -0.04 0.84 -0.08 1.28 l0 5.6 l0 3.36 c0 0.84 0 1.68 0.04 2.52 c0 0.32 0 0.64 0.04 0.96 c0.12 0.92 0.68 1.44 1.6 1.52 z M244.01000000000002 40 c-0.6 0 -1.16 0 -1.72 -0.16 c-0.32 -0.08 -0.56 -0.2 -0.76 -0.4 c-0.2 -0.24 -0.36 -0.48 -0.4 -0.76 c-0.04 -0.24 -0.08 -0.44 -0.08 -0.68 l0 -1.16 l0 -10.84 l0 -11 c0 -0.4 0 -0.84 0.04 -1.24 c0 -0.28 0.04 -0.52 0.12 -0.76 c0.16 -0.4 0.4 -0.68 0.8 -0.8 c0.32 -0.12 0.64 -0.16 0.96 -0.16 c0.36 -0.04 0.72 -0.04 1.04 -0.04 l13.56 0 c0.32 0 0.68 0 1.04 0.04 c0.28 0 0.52 0.04 0.76 0.12 c0.56 0.12 0.88 0.52 1 1.04 c0.04 0.2 0.08 0.4 0.08 0.6 l0 2.6 c0 0.16 -0.04 0.32 -0.04 0.48 c-0.12 0.68 -0.6 1.16 -1.28 1.24 c-0.24 0.04 -0.48 0.08 -0.68 0.08 l-1.16 0 l-5.32 0 c-0.36 0 -0.72 0 -1.08 0.04 c-0.32 0 -0.64 0.04 -0.92 0.16 c-0.48 0.16 -0.76 0.48 -0.96 0.92 c0 0.08 -0.04 0.16 -0.08 0.28 c-0.12 0.68 -0.12 1.4 -0.04 2.12 l0.12 0.36 c0.2 0.6 0.6 0.96 1.24 1.08 c0.32 0.08 0.64 0.08 0.96 0.08 l2.32 0 c0.48 0 0.96 0.04 1.44 0.12 c0.16 0.04 0.32 0.04 0.48 0.12 c0.4 0.12 0.72 0.4 0.84 0.84 c0.12 0.32 0.2 0.68 0.2 1.04 l0 2.12 c0 0.32 -0.08 0.64 -0.16 0.96 c-0.16 0.48 -0.48 0.76 -0.96 0.88 c-0.12 0.08 -0.28 0.08 -0.44 0.12 c-0.64 0.04 -1.28 0.12 -1.96 0.12 c-0.6 -0.04 -1.2 -0.04 -1.8 0 c-0.32 0 -0.6 0 -0.88 0.04 c-0.64 0.08 -1.04 0.48 -1.28 1.08 s-0.24 1.24 0 1.88 s0.64 1.04 1.36 1.08 c0.92 0.08 1.84 0.12 2.76 0.16 l4.64 0 c0.44 0 0.84 0 1.28 0.04 c0.24 0.04 0.48 0.08 0.72 0.24 c0.36 0.28 0.6 0.6 0.64 1.04 c0.04 0.16 0.04 0.32 0.04 0.48 l0 2.52 c0 0.2 -0.04 0.44 -0.08 0.68 c-0.12 0.52 -0.44 0.84 -0.92 1 c-0.36 0.12 -0.68 0.16 -1.04 0.16 c-0.28 0.04 -0.6 0.04 -0.88 0.04 l-13.52 0 z"/></g>
			</g>
		</svg>
	